<?xml version="1.0" encoding="utf-8"?>
<!-- Generator: Adobe Illustrator 18.1.0, SVG Export Plug-In . SVG Version: 6.00 Build 0)  -->
<!DOCTYPE svg PUBLIC "-//W3C//DTD SVG 1.0//EN" "http://www.w3.org/TR/2001/REC-SVG-20010904/DTD/svg10.dtd">
<svg version="1.0" id="Livello_1" xmlns="http://www.w3.org/2000/svg" xmlns:xlink="http://www.w3.org/1999/xlink" x="0px" y="0px"
	 viewBox="0 0 222.2 50" style="enable-background:new 0 0 222.2 50;" xml:space="preserve">
<g>
	<path d="M169.3,46.8c-6.8,0-12.4-5.6-12.4-12.4l0-30.7h5.4l0,8H173v5.5h-10.7l0,17.3c0,3.8,3.1,6.9,6.9,6.9h10.9v5.5H169.3z"/>
	<path d="M122,46.8v-2.6c-2.2,1.6-5,2.5-7.9,2.5h-8.6c-7.3,0-13.3-5.9-13.3-13.2V11.6l5.5,0v21.8c0,4.3,3.5,7.8,7.8,7.8h8.6
		c4.4,0,7.9-3.5,7.9-7.8V11.5h5.5v35.3H122z"/>
	<path d="M55.7,46.8v-5.5h16.1c3.7,0,6.7-3.1,6.7-7c0-3.8-3-7-6.7-7h-6.9h-1.9l-0.2,0c-3.9-0.3-7-3.8-7-7.8c0-4.4,3.5-7.9,7.7-7.9
		h13.7v5.5H63.4c-1.3,0-2.3,1.1-2.3,2.4c0,1.2,0.9,2.2,2,2.4h8.7c6.7,0,12.2,5.6,12.2,12.4c0,6.9-5.5,12.5-12.2,12.5H55.7z"/>
	<path d="M199.2,46.8c-7.3,0-13.2-6-13.2-13.3v-8c0-7.3,5.9-13.3,13.2-13.3h8.7c7.3,0,13.2,5.9,13.2,13.3v5.8h-23.4v-5.5h17.9v-0.4
		c0-4.3-3.5-7.8-7.8-7.8h-8.7c-4.3,0-7.8,3.5-7.8,7.8v8c0,4.3,3.5,7.8,7.8,7.8H221l0,5.5H199.2z"/>
	<path d="M146.5,46.4c-5.9-1.1-10.2-6.2-10.2-12.2V11.3h5.5v22.8c0,3.2,2.2,6,5.3,6.8l1.2,0.3v5.5L146.5,46.4z M136.3,8.8V3.3h5.5
		v5.5H136.3z"/>
	<g>
		<path style="fill:#DF041C;" d="M36.1,40.1H14.7c-3.8,0-6.9-3.1-6.9-6.9V25c0-3.8,3.1-6.9,6.9-6.9h7.8c3.8,0,6.9,3.1,6.9,6.9h6.6
			c0-7.5-6.1-13.6-13.6-13.6h-7.8C7.2,11.4,1.1,17.5,1.1,25v8.2c0,7.5,6.1,13.6,13.5,13.6h21.4V40.1z"/>
		<path style="fill:#DF041C;" d="M47.6,43.4c0,2.3-1.9,4.3-4.3,4.3c-2.3,0-4.3-1.9-4.3-4.3c0-2.4,1.9-4.3,4.3-4.3
			C45.6,39.1,47.6,41,47.6,43.4z"/>
	</g>
</g>
</svg>
